<?xml version="1.0" encoding="utf-8"?>
<!-- Generator: Adobe Illustrator 26.0.0, SVG Export Plug-In . SVG Version: 6.00 Build 0)  -->
<svg version="1.1" id="Warstwa_1" xmlns="http://www.w3.org/2000/svg" xmlns:xlink="http://www.w3.org/1999/xlink" x="0px" y="0px"
	 viewBox="0 0 512 512" style="enable-background:new 0 0 512 512;" xml:space="preserve">
<style type="text/css">
	.st0{stroke:#066DA5;stroke-width:38;}
	.st1{fill:#066DA5;}
</style>
<path class="st0" d="M292.5,224h48.9 M234.3,224h48.9 M177.3,224h48.9 M120.3,224H168 M62.1,224H111 M120.3,170.5H168 M177.3,170.5
	h48.9 M234.3,170.5h48.9 M234.3,117h48.9"/>
<path class="st1" d="M497.3,226.4c0,0-20.9-19.8-64-12.8c-4.7-33.7-40.7-53.5-40.7-53.5s-33.7,40.7-9.3,86.1
	c-7,3.5-18.6,8.1-36.1,8.1h-320C21.4,276.4,21.4,423,182,423c115.2,0,201.3-53.5,242-151.3C484.5,276.4,497.3,226.4,497.3,226.4"/>
</svg>
