<svg xmlns="http://www.w3.org/2000/svg" xmlns:xlink="http://www.w3.org/1999/xlink" viewBox="0 0 480 480"><defs><style>.cls-1{fill:url(#Gradient_bez_nazwy_70);}.cls-2{fill:url(#Gradient_bez_nazwy_67);}</style><linearGradient id="Gradient_bez_nazwy_70" x1="363.56" y1="307.65" x2="405.57" y2="307.65" gradientUnits="userSpaceOnUse"><stop offset="0" stop-color="#b16cea"/><stop offset="0" stop-color="#ff5e69"/><stop offset="0" stop-color="#ff8a56"/><stop offset="1" stop-color="#ffa84b"/></linearGradient><linearGradient id="Gradient_bez_nazwy_67" y1="240" x2="480" y2="240" gradientUnits="userSpaceOnUse"><stop offset="0" stop-color="#b16cea"/><stop offset="0.25" stop-color="#ff5e69"/><stop offset="0.68" stop-color="#ff8a56"/><stop offset="1" stop-color="#ffa84b"/></linearGradient></defs><g id="Warstwa_2" data-name="Warstwa 2"><g id="Warstwa_1-2" data-name="Warstwa 1"><path class="cls-1" d="M383.81,289.14H363.56v37H383q3.15,0,12.21-2.48a12.15,12.15,0,0,0,7.47-5.72,19.29,19.29,0,0,0,2.9-10.56q0-8.82-4.57-13.54T383.81,289.14Z"/><path class="cls-2" d="M474,0H6A6,6,0,0,0,0,6V474a6,6,0,0,0,6,6H474a6,6,0,0,0,6-6V6A6,6,0,0,0,474,0ZM268.75,434.49H223.57L197.41,319.83l-26,114.66H126.18L93,252.37h43.76l15.76,101.95,23.06-101.95h43.61l23.12,101.82,15.77-101.82h43.54Zm143.14,0-24.63-55.66q-4.68-10.8-8.34-14a17,17,0,0,0-11.29-4.23h-4.07v73.92H317.28V252.37h76.8q21.36,0,32.65,4.47t18.21,16.58q6.92,12.12,6.91,29.51,0,15.17-5.29,26.15A47.2,47.2,0,0,1,432,346.91q-5.91,4.35-16.18,7.2,8.22,3.36,12,6.72,2.54,2.24,7.37,9.57a73.29,73.29,0,0,1,6.45,11.32L464,434.49Z"/></g></g></svg>